<mxfile host="app.diagrams.net" modified="2021-05-14T14:06:13.956Z" agent="5.0 (X11)" etag="gmEEuL0G7MJclr7wYXE7" version="14.6.13" type="github">
  <diagram id="mNWjjMTgvx-HXKEN6pT4" name="Page-1">
    <mxGraphModel dx="1022" dy="572" grid="1" gridSize="10" guides="1" tooltips="1" connect="1" arrows="1" fold="1" page="1" pageScale="1" pageWidth="850" pageHeight="1100" math="0" shadow="0">
      <root>
        <mxCell id="0" />
        <mxCell id="1" parent="0" />
        <mxCell id="dVuEft-SKmpXerfjnewb-96" style="edgeStyle=orthogonalEdgeStyle;rounded=0;orthogonalLoop=1;jettySize=auto;html=1;entryX=0.5;entryY=1;entryDx=0;entryDy=0;startArrow=ERmandOne;startFill=0;endArrow=ERzeroToMany;endFill=1;" edge="1" parent="1" source="dVuEft-SKmpXerfjnewb-1" target="dVuEft-SKmpXerfjnewb-81">
          <mxGeometry relative="1" as="geometry" />
        </mxCell>
        <mxCell id="dVuEft-SKmpXerfjnewb-156" style="edgeStyle=orthogonalEdgeStyle;rounded=0;orthogonalLoop=1;jettySize=auto;html=1;entryX=0;entryY=0.5;entryDx=0;entryDy=0;startArrow=ERmandOne;startFill=0;endArrow=ERzeroToMany;endFill=1;" edge="1" parent="1" source="dVuEft-SKmpXerfjnewb-1" target="dVuEft-SKmpXerfjnewb-128">
          <mxGeometry relative="1" as="geometry" />
        </mxCell>
        <mxCell id="dVuEft-SKmpXerfjnewb-1" value="School" style="shape=table;startSize=30;container=1;collapsible=1;childLayout=tableLayout;fixedRows=1;rowLines=0;fontStyle=1;align=center;resizeLast=1;" vertex="1" parent="1">
          <mxGeometry x="270" y="290" width="180" height="280" as="geometry" />
        </mxCell>
        <mxCell id="dVuEft-SKmpXerfjnewb-2" value="" style="shape=partialRectangle;collapsible=0;dropTarget=0;pointerEvents=0;fillColor=none;top=0;left=0;bottom=1;right=0;points=[[0,0.5],[1,0.5]];portConstraint=eastwest;" vertex="1" parent="dVuEft-SKmpXerfjnewb-1">
          <mxGeometry y="30" width="180" height="30" as="geometry" />
        </mxCell>
        <mxCell id="dVuEft-SKmpXerfjnewb-3" value="PK" style="shape=partialRectangle;connectable=0;fillColor=none;top=0;left=0;bottom=0;right=0;fontStyle=1;overflow=hidden;" vertex="1" parent="dVuEft-SKmpXerfjnewb-2">
          <mxGeometry width="30" height="30" as="geometry" />
        </mxCell>
        <mxCell id="dVuEft-SKmpXerfjnewb-4" value="School_ID" style="shape=partialRectangle;connectable=0;fillColor=none;top=0;left=0;bottom=0;right=0;align=left;spacingLeft=6;fontStyle=5;overflow=hidden;" vertex="1" parent="dVuEft-SKmpXerfjnewb-2">
          <mxGeometry x="30" width="150" height="30" as="geometry" />
        </mxCell>
        <mxCell id="dVuEft-SKmpXerfjnewb-5" value="" style="shape=partialRectangle;collapsible=0;dropTarget=0;pointerEvents=0;fillColor=none;top=0;left=0;bottom=0;right=0;points=[[0,0.5],[1,0.5]];portConstraint=eastwest;" vertex="1" parent="dVuEft-SKmpXerfjnewb-1">
          <mxGeometry y="60" width="180" height="30" as="geometry" />
        </mxCell>
        <mxCell id="dVuEft-SKmpXerfjnewb-6" value="" style="shape=partialRectangle;connectable=0;fillColor=none;top=0;left=0;bottom=0;right=0;editable=1;overflow=hidden;" vertex="1" parent="dVuEft-SKmpXerfjnewb-5">
          <mxGeometry width="30" height="30" as="geometry" />
        </mxCell>
        <mxCell id="dVuEft-SKmpXerfjnewb-7" value="City" style="shape=partialRectangle;connectable=0;fillColor=none;top=0;left=0;bottom=0;right=0;align=left;spacingLeft=6;overflow=hidden;fontStyle=1" vertex="1" parent="dVuEft-SKmpXerfjnewb-5">
          <mxGeometry x="30" width="150" height="30" as="geometry" />
        </mxCell>
        <mxCell id="dVuEft-SKmpXerfjnewb-8" value="" style="shape=partialRectangle;collapsible=0;dropTarget=0;pointerEvents=0;fillColor=none;top=0;left=0;bottom=0;right=0;points=[[0,0.5],[1,0.5]];portConstraint=eastwest;" vertex="1" parent="dVuEft-SKmpXerfjnewb-1">
          <mxGeometry y="90" width="180" height="30" as="geometry" />
        </mxCell>
        <mxCell id="dVuEft-SKmpXerfjnewb-9" value="" style="shape=partialRectangle;connectable=0;fillColor=none;top=0;left=0;bottom=0;right=0;editable=1;overflow=hidden;" vertex="1" parent="dVuEft-SKmpXerfjnewb-8">
          <mxGeometry width="30" height="30" as="geometry" />
        </mxCell>
        <mxCell id="dVuEft-SKmpXerfjnewb-10" value="Recepcionist" style="shape=partialRectangle;connectable=0;fillColor=none;top=0;left=0;bottom=0;right=0;align=left;spacingLeft=6;overflow=hidden;" vertex="1" parent="dVuEft-SKmpXerfjnewb-8">
          <mxGeometry x="30" width="150" height="30" as="geometry" />
        </mxCell>
        <mxCell id="dVuEft-SKmpXerfjnewb-11" value="" style="shape=partialRectangle;collapsible=0;dropTarget=0;pointerEvents=0;fillColor=none;top=0;left=0;bottom=0;right=0;points=[[0,0.5],[1,0.5]];portConstraint=eastwest;" vertex="1" parent="dVuEft-SKmpXerfjnewb-1">
          <mxGeometry y="120" width="180" height="30" as="geometry" />
        </mxCell>
        <mxCell id="dVuEft-SKmpXerfjnewb-12" value="" style="shape=partialRectangle;connectable=0;fillColor=none;top=0;left=0;bottom=0;right=0;editable=1;overflow=hidden;" vertex="1" parent="dVuEft-SKmpXerfjnewb-11">
          <mxGeometry width="30" height="30" as="geometry" />
        </mxCell>
        <mxCell id="dVuEft-SKmpXerfjnewb-13" value="Coordinator" style="shape=partialRectangle;connectable=0;fillColor=none;top=0;left=0;bottom=0;right=0;align=left;spacingLeft=6;overflow=hidden;" vertex="1" parent="dVuEft-SKmpXerfjnewb-11">
          <mxGeometry x="30" width="150" height="30" as="geometry" />
        </mxCell>
        <mxCell id="dVuEft-SKmpXerfjnewb-15" style="shape=partialRectangle;collapsible=0;dropTarget=0;pointerEvents=0;fillColor=none;top=0;left=0;bottom=0;right=0;points=[[0,0.5],[1,0.5]];portConstraint=eastwest;" vertex="1" parent="dVuEft-SKmpXerfjnewb-1">
          <mxGeometry y="150" width="180" height="30" as="geometry" />
        </mxCell>
        <mxCell id="dVuEft-SKmpXerfjnewb-16" style="shape=partialRectangle;connectable=0;fillColor=none;top=0;left=0;bottom=0;right=0;editable=1;overflow=hidden;" vertex="1" parent="dVuEft-SKmpXerfjnewb-15">
          <mxGeometry width="30" height="30" as="geometry" />
        </mxCell>
        <mxCell id="dVuEft-SKmpXerfjnewb-17" value="Maintenance" style="shape=partialRectangle;connectable=0;fillColor=none;top=0;left=0;bottom=0;right=0;align=left;spacingLeft=6;overflow=hidden;" vertex="1" parent="dVuEft-SKmpXerfjnewb-15">
          <mxGeometry x="30" width="150" height="30" as="geometry" />
        </mxCell>
        <mxCell id="dVuEft-SKmpXerfjnewb-18" style="shape=partialRectangle;collapsible=0;dropTarget=0;pointerEvents=0;fillColor=none;top=0;left=0;bottom=0;right=0;points=[[0,0.5],[1,0.5]];portConstraint=eastwest;" vertex="1" parent="dVuEft-SKmpXerfjnewb-1">
          <mxGeometry y="180" width="180" height="30" as="geometry" />
        </mxCell>
        <mxCell id="dVuEft-SKmpXerfjnewb-19" style="shape=partialRectangle;connectable=0;fillColor=none;top=0;left=0;bottom=0;right=0;editable=1;overflow=hidden;" vertex="1" parent="dVuEft-SKmpXerfjnewb-18">
          <mxGeometry width="30" height="30" as="geometry" />
        </mxCell>
        <mxCell id="dVuEft-SKmpXerfjnewb-20" value="Weekdays_percent" style="shape=partialRectangle;connectable=0;fillColor=none;top=0;left=0;bottom=0;right=0;align=left;spacingLeft=6;overflow=hidden;" vertex="1" parent="dVuEft-SKmpXerfjnewb-18">
          <mxGeometry x="30" width="150" height="30" as="geometry" />
        </mxCell>
        <mxCell id="dVuEft-SKmpXerfjnewb-21" style="shape=partialRectangle;collapsible=0;dropTarget=0;pointerEvents=0;fillColor=none;top=0;left=0;bottom=0;right=0;points=[[0,0.5],[1,0.5]];portConstraint=eastwest;" vertex="1" parent="dVuEft-SKmpXerfjnewb-1">
          <mxGeometry y="210" width="180" height="30" as="geometry" />
        </mxCell>
        <mxCell id="dVuEft-SKmpXerfjnewb-22" style="shape=partialRectangle;connectable=0;fillColor=none;top=0;left=0;bottom=0;right=0;editable=1;overflow=hidden;" vertex="1" parent="dVuEft-SKmpXerfjnewb-21">
          <mxGeometry width="30" height="30" as="geometry" />
        </mxCell>
        <mxCell id="dVuEft-SKmpXerfjnewb-23" value="Saturdays_percent" style="shape=partialRectangle;connectable=0;fillColor=none;top=0;left=0;bottom=0;right=0;align=left;spacingLeft=6;overflow=hidden;" vertex="1" parent="dVuEft-SKmpXerfjnewb-21">
          <mxGeometry x="30" width="150" height="30" as="geometry" />
        </mxCell>
        <mxCell id="dVuEft-SKmpXerfjnewb-37" style="shape=partialRectangle;collapsible=0;dropTarget=0;pointerEvents=0;fillColor=none;top=0;left=0;bottom=0;right=0;points=[[0,0.5],[1,0.5]];portConstraint=eastwest;" vertex="1" parent="dVuEft-SKmpXerfjnewb-1">
          <mxGeometry y="240" width="180" height="30" as="geometry" />
        </mxCell>
        <mxCell id="dVuEft-SKmpXerfjnewb-38" style="shape=partialRectangle;connectable=0;fillColor=none;top=0;left=0;bottom=0;right=0;editable=1;overflow=hidden;" vertex="1" parent="dVuEft-SKmpXerfjnewb-37">
          <mxGeometry width="30" height="30" as="geometry" />
        </mxCell>
        <mxCell id="dVuEft-SKmpXerfjnewb-39" value="is_active" style="shape=partialRectangle;connectable=0;fillColor=none;top=0;left=0;bottom=0;right=0;align=left;spacingLeft=6;overflow=hidden;" vertex="1" parent="dVuEft-SKmpXerfjnewb-37">
          <mxGeometry x="30" width="150" height="30" as="geometry" />
        </mxCell>
        <mxCell id="dVuEft-SKmpXerfjnewb-94" style="edgeStyle=orthogonalEdgeStyle;rounded=0;orthogonalLoop=1;jettySize=auto;html=1;startArrow=ERmandOne;startFill=0;endArrow=ERzeroToMany;endFill=1;" edge="1" parent="1" source="dVuEft-SKmpXerfjnewb-24" target="dVuEft-SKmpXerfjnewb-41">
          <mxGeometry relative="1" as="geometry" />
        </mxCell>
        <mxCell id="dVuEft-SKmpXerfjnewb-95" style="edgeStyle=orthogonalEdgeStyle;rounded=0;orthogonalLoop=1;jettySize=auto;html=1;entryX=1;entryY=0.5;entryDx=0;entryDy=0;startArrow=ERmandOne;startFill=0;endArrow=ERzeroToMany;endFill=1;exitX=0.5;exitY=1;exitDx=0;exitDy=0;" edge="1" parent="1" source="dVuEft-SKmpXerfjnewb-24" target="dVuEft-SKmpXerfjnewb-85">
          <mxGeometry relative="1" as="geometry">
            <Array as="points">
              <mxPoint x="560" y="195" />
            </Array>
          </mxGeometry>
        </mxCell>
        <mxCell id="dVuEft-SKmpXerfjnewb-24" value="Professors" style="shape=table;startSize=30;container=1;collapsible=1;childLayout=tableLayout;fixedRows=1;rowLines=0;fontStyle=1;align=center;resizeLast=1;" vertex="1" parent="1">
          <mxGeometry x="470" y="20" width="180" height="130" as="geometry" />
        </mxCell>
        <mxCell id="dVuEft-SKmpXerfjnewb-25" value="" style="shape=partialRectangle;collapsible=0;dropTarget=0;pointerEvents=0;fillColor=none;top=0;left=0;bottom=1;right=0;points=[[0,0.5],[1,0.5]];portConstraint=eastwest;" vertex="1" parent="dVuEft-SKmpXerfjnewb-24">
          <mxGeometry y="30" width="180" height="30" as="geometry" />
        </mxCell>
        <mxCell id="dVuEft-SKmpXerfjnewb-26" value="PK" style="shape=partialRectangle;connectable=0;fillColor=none;top=0;left=0;bottom=0;right=0;fontStyle=1;overflow=hidden;" vertex="1" parent="dVuEft-SKmpXerfjnewb-25">
          <mxGeometry width="30" height="30" as="geometry" />
        </mxCell>
        <mxCell id="dVuEft-SKmpXerfjnewb-27" value="Professors_ID" style="shape=partialRectangle;connectable=0;fillColor=none;top=0;left=0;bottom=0;right=0;align=left;spacingLeft=6;fontStyle=5;overflow=hidden;" vertex="1" parent="dVuEft-SKmpXerfjnewb-25">
          <mxGeometry x="30" width="150" height="30" as="geometry" />
        </mxCell>
        <mxCell id="dVuEft-SKmpXerfjnewb-28" value="" style="shape=partialRectangle;collapsible=0;dropTarget=0;pointerEvents=0;fillColor=none;top=0;left=0;bottom=0;right=0;points=[[0,0.5],[1,0.5]];portConstraint=eastwest;" vertex="1" parent="dVuEft-SKmpXerfjnewb-24">
          <mxGeometry y="60" width="180" height="30" as="geometry" />
        </mxCell>
        <mxCell id="dVuEft-SKmpXerfjnewb-29" value="" style="shape=partialRectangle;connectable=0;fillColor=none;top=0;left=0;bottom=0;right=0;editable=1;overflow=hidden;" vertex="1" parent="dVuEft-SKmpXerfjnewb-28">
          <mxGeometry width="30" height="30" as="geometry" />
        </mxCell>
        <mxCell id="dVuEft-SKmpXerfjnewb-30" value="Name" style="shape=partialRectangle;connectable=0;fillColor=none;top=0;left=0;bottom=0;right=0;align=left;spacingLeft=6;overflow=hidden;fontStyle=1" vertex="1" parent="dVuEft-SKmpXerfjnewb-28">
          <mxGeometry x="30" width="150" height="30" as="geometry" />
        </mxCell>
        <mxCell id="dVuEft-SKmpXerfjnewb-31" value="" style="shape=partialRectangle;collapsible=0;dropTarget=0;pointerEvents=0;fillColor=none;top=0;left=0;bottom=0;right=0;points=[[0,0.5],[1,0.5]];portConstraint=eastwest;" vertex="1" parent="dVuEft-SKmpXerfjnewb-24">
          <mxGeometry y="90" width="180" height="30" as="geometry" />
        </mxCell>
        <mxCell id="dVuEft-SKmpXerfjnewb-32" value="" style="shape=partialRectangle;connectable=0;fillColor=none;top=0;left=0;bottom=0;right=0;editable=1;overflow=hidden;" vertex="1" parent="dVuEft-SKmpXerfjnewb-31">
          <mxGeometry width="30" height="30" as="geometry" />
        </mxCell>
        <mxCell id="dVuEft-SKmpXerfjnewb-33" value="is_active" style="shape=partialRectangle;connectable=0;fillColor=none;top=0;left=0;bottom=0;right=0;align=left;spacingLeft=6;overflow=hidden;" vertex="1" parent="dVuEft-SKmpXerfjnewb-31">
          <mxGeometry x="30" width="150" height="30" as="geometry" />
        </mxCell>
        <mxCell id="dVuEft-SKmpXerfjnewb-119" style="edgeStyle=orthogonalEdgeStyle;rounded=0;orthogonalLoop=1;jettySize=auto;html=1;startArrow=ERmandOne;startFill=0;endArrow=ERzeroToMany;endFill=1;" edge="1" parent="1" source="dVuEft-SKmpXerfjnewb-40" target="dVuEft-SKmpXerfjnewb-97">
          <mxGeometry relative="1" as="geometry" />
        </mxCell>
        <mxCell id="dVuEft-SKmpXerfjnewb-40" value="Students" style="shape=table;startSize=30;container=1;collapsible=1;childLayout=tableLayout;fixedRows=1;rowLines=0;fontStyle=1;align=center;resizeLast=1;" vertex="1" parent="1">
          <mxGeometry x="40" y="20" width="180" height="250" as="geometry" />
        </mxCell>
        <mxCell id="dVuEft-SKmpXerfjnewb-41" value="" style="shape=partialRectangle;collapsible=0;dropTarget=0;pointerEvents=0;fillColor=none;top=0;left=0;bottom=1;right=0;points=[[0,0.5],[1,0.5]];portConstraint=eastwest;" vertex="1" parent="dVuEft-SKmpXerfjnewb-40">
          <mxGeometry y="30" width="180" height="30" as="geometry" />
        </mxCell>
        <mxCell id="dVuEft-SKmpXerfjnewb-42" value="PK" style="shape=partialRectangle;connectable=0;fillColor=none;top=0;left=0;bottom=0;right=0;fontStyle=1;overflow=hidden;" vertex="1" parent="dVuEft-SKmpXerfjnewb-41">
          <mxGeometry width="30" height="30" as="geometry" />
        </mxCell>
        <mxCell id="dVuEft-SKmpXerfjnewb-43" value="Student_ID" style="shape=partialRectangle;connectable=0;fillColor=none;top=0;left=0;bottom=0;right=0;align=left;spacingLeft=6;fontStyle=5;overflow=hidden;" vertex="1" parent="dVuEft-SKmpXerfjnewb-41">
          <mxGeometry x="30" width="150" height="30" as="geometry" />
        </mxCell>
        <mxCell id="dVuEft-SKmpXerfjnewb-44" value="" style="shape=partialRectangle;collapsible=0;dropTarget=0;pointerEvents=0;fillColor=none;top=0;left=0;bottom=0;right=0;points=[[0,0.5],[1,0.5]];portConstraint=eastwest;" vertex="1" parent="dVuEft-SKmpXerfjnewb-40">
          <mxGeometry y="60" width="180" height="30" as="geometry" />
        </mxCell>
        <mxCell id="dVuEft-SKmpXerfjnewb-45" value="" style="shape=partialRectangle;connectable=0;fillColor=none;top=0;left=0;bottom=0;right=0;editable=1;overflow=hidden;" vertex="1" parent="dVuEft-SKmpXerfjnewb-44">
          <mxGeometry width="30" height="30" as="geometry" />
        </mxCell>
        <mxCell id="dVuEft-SKmpXerfjnewb-46" value="Name" style="shape=partialRectangle;connectable=0;fillColor=none;top=0;left=0;bottom=0;right=0;align=left;spacingLeft=6;overflow=hidden;fontStyle=1" vertex="1" parent="dVuEft-SKmpXerfjnewb-44">
          <mxGeometry x="30" width="150" height="30" as="geometry" />
        </mxCell>
        <mxCell id="dVuEft-SKmpXerfjnewb-47" value="" style="shape=partialRectangle;collapsible=0;dropTarget=0;pointerEvents=0;fillColor=none;top=0;left=0;bottom=0;right=0;points=[[0,0.5],[1,0.5]];portConstraint=eastwest;" vertex="1" parent="dVuEft-SKmpXerfjnewb-40">
          <mxGeometry y="90" width="180" height="30" as="geometry" />
        </mxCell>
        <mxCell id="dVuEft-SKmpXerfjnewb-48" value="" style="shape=partialRectangle;connectable=0;fillColor=none;top=0;left=0;bottom=0;right=0;editable=1;overflow=hidden;" vertex="1" parent="dVuEft-SKmpXerfjnewb-47">
          <mxGeometry width="30" height="30" as="geometry" />
        </mxCell>
        <mxCell id="dVuEft-SKmpXerfjnewb-49" value="is_active" style="shape=partialRectangle;connectable=0;fillColor=none;top=0;left=0;bottom=0;right=0;align=left;spacingLeft=6;overflow=hidden;fontStyle=0" vertex="1" parent="dVuEft-SKmpXerfjnewb-47">
          <mxGeometry x="30" width="150" height="30" as="geometry" />
        </mxCell>
        <mxCell id="dVuEft-SKmpXerfjnewb-50" value="" style="shape=partialRectangle;collapsible=0;dropTarget=0;pointerEvents=0;fillColor=none;top=0;left=0;bottom=0;right=0;points=[[0,0.5],[1,0.5]];portConstraint=eastwest;" vertex="1" parent="dVuEft-SKmpXerfjnewb-40">
          <mxGeometry y="120" width="180" height="30" as="geometry" />
        </mxCell>
        <mxCell id="dVuEft-SKmpXerfjnewb-51" value="FK1" style="shape=partialRectangle;connectable=0;fillColor=none;top=0;left=0;bottom=0;right=0;editable=1;overflow=hidden;" vertex="1" parent="dVuEft-SKmpXerfjnewb-50">
          <mxGeometry width="30" height="30" as="geometry" />
        </mxCell>
        <mxCell id="dVuEft-SKmpXerfjnewb-52" value="school_ID" style="shape=partialRectangle;connectable=0;fillColor=none;top=0;left=0;bottom=0;right=0;align=left;spacingLeft=6;overflow=hidden;fontStyle=1" vertex="1" parent="dVuEft-SKmpXerfjnewb-50">
          <mxGeometry x="30" width="150" height="30" as="geometry" />
        </mxCell>
        <mxCell id="dVuEft-SKmpXerfjnewb-78" style="shape=partialRectangle;collapsible=0;dropTarget=0;pointerEvents=0;fillColor=none;top=0;left=0;bottom=0;right=0;points=[[0,0.5],[1,0.5]];portConstraint=eastwest;" vertex="1" parent="dVuEft-SKmpXerfjnewb-40">
          <mxGeometry y="150" width="180" height="30" as="geometry" />
        </mxCell>
        <mxCell id="dVuEft-SKmpXerfjnewb-79" value="FK2" style="shape=partialRectangle;connectable=0;fillColor=none;top=0;left=0;bottom=0;right=0;editable=1;overflow=hidden;" vertex="1" parent="dVuEft-SKmpXerfjnewb-78">
          <mxGeometry width="30" height="30" as="geometry" />
        </mxCell>
        <mxCell id="dVuEft-SKmpXerfjnewb-80" value="professor_ID" style="shape=partialRectangle;connectable=0;fillColor=none;top=0;left=0;bottom=0;right=0;align=left;spacingLeft=6;overflow=hidden;fontStyle=1" vertex="1" parent="dVuEft-SKmpXerfjnewb-78">
          <mxGeometry x="30" width="150" height="30" as="geometry" />
        </mxCell>
        <mxCell id="dVuEft-SKmpXerfjnewb-53" style="shape=partialRectangle;collapsible=0;dropTarget=0;pointerEvents=0;fillColor=none;top=0;left=0;bottom=0;right=0;points=[[0,0.5],[1,0.5]];portConstraint=eastwest;" vertex="1" parent="dVuEft-SKmpXerfjnewb-40">
          <mxGeometry y="180" width="180" height="30" as="geometry" />
        </mxCell>
        <mxCell id="dVuEft-SKmpXerfjnewb-54" style="shape=partialRectangle;connectable=0;fillColor=none;top=0;left=0;bottom=0;right=0;editable=1;overflow=hidden;" vertex="1" parent="dVuEft-SKmpXerfjnewb-53">
          <mxGeometry width="30" height="30" as="geometry" />
        </mxCell>
        <mxCell id="dVuEft-SKmpXerfjnewb-55" value="payment" style="shape=partialRectangle;connectable=0;fillColor=none;top=0;left=0;bottom=0;right=0;align=left;spacingLeft=6;overflow=hidden;" vertex="1" parent="dVuEft-SKmpXerfjnewb-53">
          <mxGeometry x="30" width="150" height="30" as="geometry" />
        </mxCell>
        <mxCell id="dVuEft-SKmpXerfjnewb-56" style="shape=partialRectangle;collapsible=0;dropTarget=0;pointerEvents=0;fillColor=none;top=0;left=0;bottom=0;right=0;points=[[0,0.5],[1,0.5]];portConstraint=eastwest;" vertex="1" parent="dVuEft-SKmpXerfjnewb-40">
          <mxGeometry y="210" width="180" height="30" as="geometry" />
        </mxCell>
        <mxCell id="dVuEft-SKmpXerfjnewb-57" style="shape=partialRectangle;connectable=0;fillColor=none;top=0;left=0;bottom=0;right=0;editable=1;overflow=hidden;" vertex="1" parent="dVuEft-SKmpXerfjnewb-56">
          <mxGeometry width="30" height="30" as="geometry" />
        </mxCell>
        <mxCell id="dVuEft-SKmpXerfjnewb-58" value="lessons" style="shape=partialRectangle;connectable=0;fillColor=none;top=0;left=0;bottom=0;right=0;align=left;spacingLeft=6;overflow=hidden;fontStyle=1" vertex="1" parent="dVuEft-SKmpXerfjnewb-56">
          <mxGeometry x="30" width="150" height="30" as="geometry" />
        </mxCell>
        <mxCell id="dVuEft-SKmpXerfjnewb-81" value="Professors_Schools" style="shape=table;startSize=30;container=1;collapsible=1;childLayout=tableLayout;fixedRows=1;rowLines=0;fontStyle=1;align=center;resizeLast=1;" vertex="1" parent="1">
          <mxGeometry x="270" y="120" width="180" height="130" as="geometry" />
        </mxCell>
        <mxCell id="dVuEft-SKmpXerfjnewb-82" value="" style="shape=partialRectangle;collapsible=0;dropTarget=0;pointerEvents=0;fillColor=none;top=0;left=0;bottom=1;right=0;points=[[0,0.5],[1,0.5]];portConstraint=eastwest;" vertex="1" parent="dVuEft-SKmpXerfjnewb-81">
          <mxGeometry y="30" width="180" height="30" as="geometry" />
        </mxCell>
        <mxCell id="dVuEft-SKmpXerfjnewb-83" value="PK" style="shape=partialRectangle;connectable=0;fillColor=none;top=0;left=0;bottom=0;right=0;fontStyle=1;overflow=hidden;" vertex="1" parent="dVuEft-SKmpXerfjnewb-82">
          <mxGeometry width="30" height="30" as="geometry" />
        </mxCell>
        <mxCell id="dVuEft-SKmpXerfjnewb-84" value="Professor_School_ID" style="shape=partialRectangle;connectable=0;fillColor=none;top=0;left=0;bottom=0;right=0;align=left;spacingLeft=6;fontStyle=5;overflow=hidden;" vertex="1" parent="dVuEft-SKmpXerfjnewb-82">
          <mxGeometry x="30" width="150" height="30" as="geometry" />
        </mxCell>
        <mxCell id="dVuEft-SKmpXerfjnewb-85" value="" style="shape=partialRectangle;collapsible=0;dropTarget=0;pointerEvents=0;fillColor=none;top=0;left=0;bottom=0;right=0;points=[[0,0.5],[1,0.5]];portConstraint=eastwest;" vertex="1" parent="dVuEft-SKmpXerfjnewb-81">
          <mxGeometry y="60" width="180" height="30" as="geometry" />
        </mxCell>
        <mxCell id="dVuEft-SKmpXerfjnewb-86" value="FK1" style="shape=partialRectangle;connectable=0;fillColor=none;top=0;left=0;bottom=0;right=0;editable=1;overflow=hidden;" vertex="1" parent="dVuEft-SKmpXerfjnewb-85">
          <mxGeometry width="30" height="30" as="geometry" />
        </mxCell>
        <mxCell id="dVuEft-SKmpXerfjnewb-87" value="professor_ID" style="shape=partialRectangle;connectable=0;fillColor=none;top=0;left=0;bottom=0;right=0;align=left;spacingLeft=6;overflow=hidden;" vertex="1" parent="dVuEft-SKmpXerfjnewb-85">
          <mxGeometry x="30" width="150" height="30" as="geometry" />
        </mxCell>
        <mxCell id="dVuEft-SKmpXerfjnewb-88" value="" style="shape=partialRectangle;collapsible=0;dropTarget=0;pointerEvents=0;fillColor=none;top=0;left=0;bottom=0;right=0;points=[[0,0.5],[1,0.5]];portConstraint=eastwest;" vertex="1" parent="dVuEft-SKmpXerfjnewb-81">
          <mxGeometry y="90" width="180" height="30" as="geometry" />
        </mxCell>
        <mxCell id="dVuEft-SKmpXerfjnewb-89" value="FK2" style="shape=partialRectangle;connectable=0;fillColor=none;top=0;left=0;bottom=0;right=0;editable=1;overflow=hidden;" vertex="1" parent="dVuEft-SKmpXerfjnewb-88">
          <mxGeometry width="30" height="30" as="geometry" />
        </mxCell>
        <mxCell id="dVuEft-SKmpXerfjnewb-90" value="school_ID" style="shape=partialRectangle;connectable=0;fillColor=none;top=0;left=0;bottom=0;right=0;align=left;spacingLeft=6;overflow=hidden;" vertex="1" parent="dVuEft-SKmpXerfjnewb-88">
          <mxGeometry x="30" width="150" height="30" as="geometry" />
        </mxCell>
        <mxCell id="dVuEft-SKmpXerfjnewb-97" value="Student_Payments" style="shape=table;startSize=30;container=1;collapsible=1;childLayout=tableLayout;fixedRows=1;rowLines=0;fontStyle=1;align=center;resizeLast=1;" vertex="1" parent="1">
          <mxGeometry x="40" y="320" width="180" height="250" as="geometry" />
        </mxCell>
        <mxCell id="dVuEft-SKmpXerfjnewb-98" value="" style="shape=partialRectangle;collapsible=0;dropTarget=0;pointerEvents=0;fillColor=none;top=0;left=0;bottom=1;right=0;points=[[0,0.5],[1,0.5]];portConstraint=eastwest;" vertex="1" parent="dVuEft-SKmpXerfjnewb-97">
          <mxGeometry y="30" width="180" height="30" as="geometry" />
        </mxCell>
        <mxCell id="dVuEft-SKmpXerfjnewb-99" value="PK" style="shape=partialRectangle;connectable=0;fillColor=none;top=0;left=0;bottom=0;right=0;fontStyle=1;overflow=hidden;" vertex="1" parent="dVuEft-SKmpXerfjnewb-98">
          <mxGeometry width="30" height="30" as="geometry" />
        </mxCell>
        <mxCell id="dVuEft-SKmpXerfjnewb-100" value="Student_Payment_ID" style="shape=partialRectangle;connectable=0;fillColor=none;top=0;left=0;bottom=0;right=0;align=left;spacingLeft=6;fontStyle=5;overflow=hidden;" vertex="1" parent="dVuEft-SKmpXerfjnewb-98">
          <mxGeometry x="30" width="150" height="30" as="geometry" />
        </mxCell>
        <mxCell id="dVuEft-SKmpXerfjnewb-101" value="" style="shape=partialRectangle;collapsible=0;dropTarget=0;pointerEvents=0;fillColor=none;top=0;left=0;bottom=0;right=0;points=[[0,0.5],[1,0.5]];portConstraint=eastwest;" vertex="1" parent="dVuEft-SKmpXerfjnewb-97">
          <mxGeometry y="60" width="180" height="30" as="geometry" />
        </mxCell>
        <mxCell id="dVuEft-SKmpXerfjnewb-102" value="" style="shape=partialRectangle;connectable=0;fillColor=none;top=0;left=0;bottom=0;right=0;editable=1;overflow=hidden;" vertex="1" parent="dVuEft-SKmpXerfjnewb-101">
          <mxGeometry width="30" height="30" as="geometry" />
        </mxCell>
        <mxCell id="dVuEft-SKmpXerfjnewb-103" value="Payment_date" style="shape=partialRectangle;connectable=0;fillColor=none;top=0;left=0;bottom=0;right=0;align=left;spacingLeft=6;overflow=hidden;fontStyle=1" vertex="1" parent="dVuEft-SKmpXerfjnewb-101">
          <mxGeometry x="30" width="150" height="30" as="geometry" />
        </mxCell>
        <mxCell id="dVuEft-SKmpXerfjnewb-104" value="" style="shape=partialRectangle;collapsible=0;dropTarget=0;pointerEvents=0;fillColor=none;top=0;left=0;bottom=0;right=0;points=[[0,0.5],[1,0.5]];portConstraint=eastwest;" vertex="1" parent="dVuEft-SKmpXerfjnewb-97">
          <mxGeometry y="90" width="180" height="30" as="geometry" />
        </mxCell>
        <mxCell id="dVuEft-SKmpXerfjnewb-105" value="" style="shape=partialRectangle;connectable=0;fillColor=none;top=0;left=0;bottom=0;right=0;editable=1;overflow=hidden;" vertex="1" parent="dVuEft-SKmpXerfjnewb-104">
          <mxGeometry width="30" height="30" as="geometry" />
        </mxCell>
        <mxCell id="dVuEft-SKmpXerfjnewb-106" value="date_to_pay" style="shape=partialRectangle;connectable=0;fillColor=none;top=0;left=0;bottom=0;right=0;align=left;spacingLeft=6;overflow=hidden;fontStyle=1" vertex="1" parent="dVuEft-SKmpXerfjnewb-104">
          <mxGeometry x="30" width="150" height="30" as="geometry" />
        </mxCell>
        <mxCell id="dVuEft-SKmpXerfjnewb-107" value="" style="shape=partialRectangle;collapsible=0;dropTarget=0;pointerEvents=0;fillColor=none;top=0;left=0;bottom=0;right=0;points=[[0,0.5],[1,0.5]];portConstraint=eastwest;" vertex="1" parent="dVuEft-SKmpXerfjnewb-97">
          <mxGeometry y="120" width="180" height="30" as="geometry" />
        </mxCell>
        <mxCell id="dVuEft-SKmpXerfjnewb-108" value="" style="shape=partialRectangle;connectable=0;fillColor=none;top=0;left=0;bottom=0;right=0;editable=1;overflow=hidden;" vertex="1" parent="dVuEft-SKmpXerfjnewb-107">
          <mxGeometry width="30" height="30" as="geometry" />
        </mxCell>
        <mxCell id="dVuEft-SKmpXerfjnewb-109" value="interest" style="shape=partialRectangle;connectable=0;fillColor=none;top=0;left=0;bottom=0;right=0;align=left;spacingLeft=6;overflow=hidden;" vertex="1" parent="dVuEft-SKmpXerfjnewb-107">
          <mxGeometry x="30" width="150" height="30" as="geometry" />
        </mxCell>
        <mxCell id="dVuEft-SKmpXerfjnewb-110" style="shape=partialRectangle;collapsible=0;dropTarget=0;pointerEvents=0;fillColor=none;top=0;left=0;bottom=0;right=0;points=[[0,0.5],[1,0.5]];portConstraint=eastwest;" vertex="1" parent="dVuEft-SKmpXerfjnewb-97">
          <mxGeometry y="150" width="180" height="30" as="geometry" />
        </mxCell>
        <mxCell id="dVuEft-SKmpXerfjnewb-111" style="shape=partialRectangle;connectable=0;fillColor=none;top=0;left=0;bottom=0;right=0;editable=1;overflow=hidden;" vertex="1" parent="dVuEft-SKmpXerfjnewb-110">
          <mxGeometry width="30" height="30" as="geometry" />
        </mxCell>
        <mxCell id="dVuEft-SKmpXerfjnewb-112" value="payment" style="shape=partialRectangle;connectable=0;fillColor=none;top=0;left=0;bottom=0;right=0;align=left;spacingLeft=6;overflow=hidden;" vertex="1" parent="dVuEft-SKmpXerfjnewb-110">
          <mxGeometry x="30" width="150" height="30" as="geometry" />
        </mxCell>
        <mxCell id="dVuEft-SKmpXerfjnewb-113" style="shape=partialRectangle;collapsible=0;dropTarget=0;pointerEvents=0;fillColor=none;top=0;left=0;bottom=0;right=0;points=[[0,0.5],[1,0.5]];portConstraint=eastwest;" vertex="1" parent="dVuEft-SKmpXerfjnewb-97">
          <mxGeometry y="180" width="180" height="30" as="geometry" />
        </mxCell>
        <mxCell id="dVuEft-SKmpXerfjnewb-114" value="FK1" style="shape=partialRectangle;connectable=0;fillColor=none;top=0;left=0;bottom=0;right=0;editable=1;overflow=hidden;" vertex="1" parent="dVuEft-SKmpXerfjnewb-113">
          <mxGeometry width="30" height="30" as="geometry" />
        </mxCell>
        <mxCell id="dVuEft-SKmpXerfjnewb-115" value="student_ID" style="shape=partialRectangle;connectable=0;fillColor=none;top=0;left=0;bottom=0;right=0;align=left;spacingLeft=6;overflow=hidden;fontStyle=1" vertex="1" parent="dVuEft-SKmpXerfjnewb-113">
          <mxGeometry x="30" width="150" height="30" as="geometry" />
        </mxCell>
        <mxCell id="dVuEft-SKmpXerfjnewb-116" style="shape=partialRectangle;collapsible=0;dropTarget=0;pointerEvents=0;fillColor=none;top=0;left=0;bottom=0;right=0;points=[[0,0.5],[1,0.5]];portConstraint=eastwest;" vertex="1" parent="dVuEft-SKmpXerfjnewb-97">
          <mxGeometry y="210" width="180" height="30" as="geometry" />
        </mxCell>
        <mxCell id="dVuEft-SKmpXerfjnewb-117" value="FK2" style="shape=partialRectangle;connectable=0;fillColor=none;top=0;left=0;bottom=0;right=0;editable=1;overflow=hidden;" vertex="1" parent="dVuEft-SKmpXerfjnewb-116">
          <mxGeometry width="30" height="30" as="geometry" />
        </mxCell>
        <mxCell id="dVuEft-SKmpXerfjnewb-118" value="school_ID" style="shape=partialRectangle;connectable=0;fillColor=none;top=0;left=0;bottom=0;right=0;align=left;spacingLeft=6;overflow=hidden;fontStyle=1" vertex="1" parent="dVuEft-SKmpXerfjnewb-116">
          <mxGeometry x="30" width="150" height="30" as="geometry" />
        </mxCell>
        <mxCell id="dVuEft-SKmpXerfjnewb-120" style="edgeStyle=orthogonalEdgeStyle;rounded=0;orthogonalLoop=1;jettySize=auto;html=1;startArrow=ERmandOne;startFill=0;endArrow=ERzeroToMany;endFill=1;" edge="1" parent="1" source="dVuEft-SKmpXerfjnewb-15" target="dVuEft-SKmpXerfjnewb-98">
          <mxGeometry relative="1" as="geometry" />
        </mxCell>
        <mxCell id="dVuEft-SKmpXerfjnewb-121" value="Expenses" style="shape=table;startSize=30;container=1;collapsible=1;childLayout=tableLayout;fixedRows=1;rowLines=0;fontStyle=1;align=center;resizeLast=1;" vertex="1" parent="1">
          <mxGeometry x="500" y="420" width="180" height="190" as="geometry" />
        </mxCell>
        <mxCell id="dVuEft-SKmpXerfjnewb-122" value="" style="shape=partialRectangle;collapsible=0;dropTarget=0;pointerEvents=0;fillColor=none;top=0;left=0;bottom=1;right=0;points=[[0,0.5],[1,0.5]];portConstraint=eastwest;" vertex="1" parent="dVuEft-SKmpXerfjnewb-121">
          <mxGeometry y="30" width="180" height="30" as="geometry" />
        </mxCell>
        <mxCell id="dVuEft-SKmpXerfjnewb-123" value="PK" style="shape=partialRectangle;connectable=0;fillColor=none;top=0;left=0;bottom=0;right=0;fontStyle=1;overflow=hidden;" vertex="1" parent="dVuEft-SKmpXerfjnewb-122">
          <mxGeometry width="30" height="30" as="geometry" />
        </mxCell>
        <mxCell id="dVuEft-SKmpXerfjnewb-124" value="Expense_ID" style="shape=partialRectangle;connectable=0;fillColor=none;top=0;left=0;bottom=0;right=0;align=left;spacingLeft=6;fontStyle=5;overflow=hidden;" vertex="1" parent="dVuEft-SKmpXerfjnewb-122">
          <mxGeometry x="30" width="150" height="30" as="geometry" />
        </mxCell>
        <mxCell id="dVuEft-SKmpXerfjnewb-125" value="" style="shape=partialRectangle;collapsible=0;dropTarget=0;pointerEvents=0;fillColor=none;top=0;left=0;bottom=0;right=0;points=[[0,0.5],[1,0.5]];portConstraint=eastwest;" vertex="1" parent="dVuEft-SKmpXerfjnewb-121">
          <mxGeometry y="60" width="180" height="30" as="geometry" />
        </mxCell>
        <mxCell id="dVuEft-SKmpXerfjnewb-126" value="" style="shape=partialRectangle;connectable=0;fillColor=none;top=0;left=0;bottom=0;right=0;editable=1;overflow=hidden;" vertex="1" parent="dVuEft-SKmpXerfjnewb-125">
          <mxGeometry width="30" height="30" as="geometry" />
        </mxCell>
        <mxCell id="dVuEft-SKmpXerfjnewb-127" value="date" style="shape=partialRectangle;connectable=0;fillColor=none;top=0;left=0;bottom=0;right=0;align=left;spacingLeft=6;overflow=hidden;" vertex="1" parent="dVuEft-SKmpXerfjnewb-125">
          <mxGeometry x="30" width="150" height="30" as="geometry" />
        </mxCell>
        <mxCell id="dVuEft-SKmpXerfjnewb-128" value="" style="shape=partialRectangle;collapsible=0;dropTarget=0;pointerEvents=0;fillColor=none;top=0;left=0;bottom=0;right=0;points=[[0,0.5],[1,0.5]];portConstraint=eastwest;" vertex="1" parent="dVuEft-SKmpXerfjnewb-121">
          <mxGeometry y="90" width="180" height="30" as="geometry" />
        </mxCell>
        <mxCell id="dVuEft-SKmpXerfjnewb-129" value="" style="shape=partialRectangle;connectable=0;fillColor=none;top=0;left=0;bottom=0;right=0;editable=1;overflow=hidden;" vertex="1" parent="dVuEft-SKmpXerfjnewb-128">
          <mxGeometry width="30" height="30" as="geometry" />
        </mxCell>
        <mxCell id="dVuEft-SKmpXerfjnewb-130" value="description" style="shape=partialRectangle;connectable=0;fillColor=none;top=0;left=0;bottom=0;right=0;align=left;spacingLeft=6;overflow=hidden;" vertex="1" parent="dVuEft-SKmpXerfjnewb-128">
          <mxGeometry x="30" width="150" height="30" as="geometry" />
        </mxCell>
        <mxCell id="dVuEft-SKmpXerfjnewb-134" style="shape=partialRectangle;collapsible=0;dropTarget=0;pointerEvents=0;fillColor=none;top=0;left=0;bottom=0;right=0;points=[[0,0.5],[1,0.5]];portConstraint=eastwest;" vertex="1" parent="dVuEft-SKmpXerfjnewb-121">
          <mxGeometry y="120" width="180" height="30" as="geometry" />
        </mxCell>
        <mxCell id="dVuEft-SKmpXerfjnewb-135" style="shape=partialRectangle;connectable=0;fillColor=none;top=0;left=0;bottom=0;right=0;editable=1;overflow=hidden;" vertex="1" parent="dVuEft-SKmpXerfjnewb-134">
          <mxGeometry width="30" height="30" as="geometry" />
        </mxCell>
        <mxCell id="dVuEft-SKmpXerfjnewb-136" value="amount" style="shape=partialRectangle;connectable=0;fillColor=none;top=0;left=0;bottom=0;right=0;align=left;spacingLeft=6;overflow=hidden;" vertex="1" parent="dVuEft-SKmpXerfjnewb-134">
          <mxGeometry x="30" width="150" height="30" as="geometry" />
        </mxCell>
        <mxCell id="dVuEft-SKmpXerfjnewb-131" value="" style="shape=partialRectangle;collapsible=0;dropTarget=0;pointerEvents=0;fillColor=none;top=0;left=0;bottom=0;right=0;points=[[0,0.5],[1,0.5]];portConstraint=eastwest;" vertex="1" parent="dVuEft-SKmpXerfjnewb-121">
          <mxGeometry y="150" width="180" height="30" as="geometry" />
        </mxCell>
        <mxCell id="dVuEft-SKmpXerfjnewb-132" value="FK1" style="shape=partialRectangle;connectable=0;fillColor=none;top=0;left=0;bottom=0;right=0;editable=1;overflow=hidden;" vertex="1" parent="dVuEft-SKmpXerfjnewb-131">
          <mxGeometry width="30" height="30" as="geometry" />
        </mxCell>
        <mxCell id="dVuEft-SKmpXerfjnewb-133" value="school_ID" style="shape=partialRectangle;connectable=0;fillColor=none;top=0;left=0;bottom=0;right=0;align=left;spacingLeft=6;overflow=hidden;" vertex="1" parent="dVuEft-SKmpXerfjnewb-131">
          <mxGeometry x="30" width="150" height="30" as="geometry" />
        </mxCell>
        <mxCell id="dVuEft-SKmpXerfjnewb-159" style="edgeStyle=orthogonalEdgeStyle;rounded=0;orthogonalLoop=1;jettySize=auto;html=1;entryX=1;entryY=0.5;entryDx=0;entryDy=0;startArrow=ERmandOne;startFill=0;endArrow=ERzeroToMany;endFill=1;" edge="1" parent="1" source="dVuEft-SKmpXerfjnewb-137" target="dVuEft-SKmpXerfjnewb-28">
          <mxGeometry relative="1" as="geometry" />
        </mxCell>
        <mxCell id="dVuEft-SKmpXerfjnewb-137" value="School_Payments" style="shape=table;startSize=30;container=1;collapsible=1;childLayout=tableLayout;fixedRows=1;rowLines=0;fontStyle=1;align=center;resizeLast=1;" vertex="1" parent="1">
          <mxGeometry x="660" y="180" width="180" height="220" as="geometry" />
        </mxCell>
        <mxCell id="dVuEft-SKmpXerfjnewb-138" value="" style="shape=partialRectangle;collapsible=0;dropTarget=0;pointerEvents=0;fillColor=none;top=0;left=0;bottom=1;right=0;points=[[0,0.5],[1,0.5]];portConstraint=eastwest;" vertex="1" parent="dVuEft-SKmpXerfjnewb-137">
          <mxGeometry y="30" width="180" height="30" as="geometry" />
        </mxCell>
        <mxCell id="dVuEft-SKmpXerfjnewb-139" value="PK" style="shape=partialRectangle;connectable=0;fillColor=none;top=0;left=0;bottom=0;right=0;fontStyle=1;overflow=hidden;" vertex="1" parent="dVuEft-SKmpXerfjnewb-138">
          <mxGeometry width="30" height="30" as="geometry" />
        </mxCell>
        <mxCell id="dVuEft-SKmpXerfjnewb-140" value="School_Payments_ID" style="shape=partialRectangle;connectable=0;fillColor=none;top=0;left=0;bottom=0;right=0;align=left;spacingLeft=6;fontStyle=5;overflow=hidden;" vertex="1" parent="dVuEft-SKmpXerfjnewb-138">
          <mxGeometry x="30" width="150" height="30" as="geometry" />
        </mxCell>
        <mxCell id="dVuEft-SKmpXerfjnewb-141" value="" style="shape=partialRectangle;collapsible=0;dropTarget=0;pointerEvents=0;fillColor=none;top=0;left=0;bottom=0;right=0;points=[[0,0.5],[1,0.5]];portConstraint=eastwest;" vertex="1" parent="dVuEft-SKmpXerfjnewb-137">
          <mxGeometry y="60" width="180" height="30" as="geometry" />
        </mxCell>
        <mxCell id="dVuEft-SKmpXerfjnewb-142" value="FK1" style="shape=partialRectangle;connectable=0;fillColor=none;top=0;left=0;bottom=0;right=0;editable=1;overflow=hidden;" vertex="1" parent="dVuEft-SKmpXerfjnewb-141">
          <mxGeometry width="30" height="30" as="geometry" />
        </mxCell>
        <mxCell id="dVuEft-SKmpXerfjnewb-143" value="school_ID" style="shape=partialRectangle;connectable=0;fillColor=none;top=0;left=0;bottom=0;right=0;align=left;spacingLeft=6;overflow=hidden;" vertex="1" parent="dVuEft-SKmpXerfjnewb-141">
          <mxGeometry x="30" width="150" height="30" as="geometry" />
        </mxCell>
        <mxCell id="dVuEft-SKmpXerfjnewb-144" value="" style="shape=partialRectangle;collapsible=0;dropTarget=0;pointerEvents=0;fillColor=none;top=0;left=0;bottom=0;right=0;points=[[0,0.5],[1,0.5]];portConstraint=eastwest;" vertex="1" parent="dVuEft-SKmpXerfjnewb-137">
          <mxGeometry y="90" width="180" height="30" as="geometry" />
        </mxCell>
        <mxCell id="dVuEft-SKmpXerfjnewb-145" value="FK2" style="shape=partialRectangle;connectable=0;fillColor=none;top=0;left=0;bottom=0;right=0;editable=1;overflow=hidden;" vertex="1" parent="dVuEft-SKmpXerfjnewb-144">
          <mxGeometry width="30" height="30" as="geometry" />
        </mxCell>
        <mxCell id="dVuEft-SKmpXerfjnewb-146" value="professor_ID" style="shape=partialRectangle;connectable=0;fillColor=none;top=0;left=0;bottom=0;right=0;align=left;spacingLeft=6;overflow=hidden;" vertex="1" parent="dVuEft-SKmpXerfjnewb-144">
          <mxGeometry x="30" width="150" height="30" as="geometry" />
        </mxCell>
        <mxCell id="dVuEft-SKmpXerfjnewb-147" value="" style="shape=partialRectangle;collapsible=0;dropTarget=0;pointerEvents=0;fillColor=none;top=0;left=0;bottom=0;right=0;points=[[0,0.5],[1,0.5]];portConstraint=eastwest;" vertex="1" parent="dVuEft-SKmpXerfjnewb-137">
          <mxGeometry y="120" width="180" height="30" as="geometry" />
        </mxCell>
        <mxCell id="dVuEft-SKmpXerfjnewb-148" value="FK3" style="shape=partialRectangle;connectable=0;fillColor=none;top=0;left=0;bottom=0;right=0;editable=1;overflow=hidden;" vertex="1" parent="dVuEft-SKmpXerfjnewb-147">
          <mxGeometry width="30" height="30" as="geometry" />
        </mxCell>
        <mxCell id="dVuEft-SKmpXerfjnewb-149" value="expense_ID" style="shape=partialRectangle;connectable=0;fillColor=none;top=0;left=0;bottom=0;right=0;align=left;spacingLeft=6;overflow=hidden;" vertex="1" parent="dVuEft-SKmpXerfjnewb-147">
          <mxGeometry x="30" width="150" height="30" as="geometry" />
        </mxCell>
        <mxCell id="dVuEft-SKmpXerfjnewb-150" style="shape=partialRectangle;collapsible=0;dropTarget=0;pointerEvents=0;fillColor=none;top=0;left=0;bottom=0;right=0;points=[[0,0.5],[1,0.5]];portConstraint=eastwest;" vertex="1" parent="dVuEft-SKmpXerfjnewb-137">
          <mxGeometry y="150" width="180" height="30" as="geometry" />
        </mxCell>
        <mxCell id="dVuEft-SKmpXerfjnewb-151" style="shape=partialRectangle;connectable=0;fillColor=none;top=0;left=0;bottom=0;right=0;editable=1;overflow=hidden;" vertex="1" parent="dVuEft-SKmpXerfjnewb-150">
          <mxGeometry width="30" height="30" as="geometry" />
        </mxCell>
        <mxCell id="dVuEft-SKmpXerfjnewb-152" value="payment" style="shape=partialRectangle;connectable=0;fillColor=none;top=0;left=0;bottom=0;right=0;align=left;spacingLeft=6;overflow=hidden;" vertex="1" parent="dVuEft-SKmpXerfjnewb-150">
          <mxGeometry x="30" width="150" height="30" as="geometry" />
        </mxCell>
        <mxCell id="dVuEft-SKmpXerfjnewb-153" style="shape=partialRectangle;collapsible=0;dropTarget=0;pointerEvents=0;fillColor=none;top=0;left=0;bottom=0;right=0;points=[[0,0.5],[1,0.5]];portConstraint=eastwest;" vertex="1" parent="dVuEft-SKmpXerfjnewb-137">
          <mxGeometry y="180" width="180" height="30" as="geometry" />
        </mxCell>
        <mxCell id="dVuEft-SKmpXerfjnewb-154" style="shape=partialRectangle;connectable=0;fillColor=none;top=0;left=0;bottom=0;right=0;editable=1;overflow=hidden;" vertex="1" parent="dVuEft-SKmpXerfjnewb-153">
          <mxGeometry width="30" height="30" as="geometry" />
        </mxCell>
        <mxCell id="dVuEft-SKmpXerfjnewb-155" value="description" style="shape=partialRectangle;connectable=0;fillColor=none;top=0;left=0;bottom=0;right=0;align=left;spacingLeft=6;overflow=hidden;" vertex="1" parent="dVuEft-SKmpXerfjnewb-153">
          <mxGeometry x="30" width="150" height="30" as="geometry" />
        </mxCell>
        <mxCell id="dVuEft-SKmpXerfjnewb-157" style="edgeStyle=orthogonalEdgeStyle;rounded=0;orthogonalLoop=1;jettySize=auto;html=1;entryX=0.5;entryY=1;entryDx=0;entryDy=0;startArrow=ERmandOne;startFill=0;endArrow=ERzeroToMany;endFill=1;" edge="1" parent="1" source="dVuEft-SKmpXerfjnewb-128" target="dVuEft-SKmpXerfjnewb-137">
          <mxGeometry relative="1" as="geometry" />
        </mxCell>
        <mxCell id="dVuEft-SKmpXerfjnewb-158" style="edgeStyle=orthogonalEdgeStyle;rounded=0;orthogonalLoop=1;jettySize=auto;html=1;entryX=0;entryY=0.5;entryDx=0;entryDy=0;startArrow=ERmandOne;startFill=0;endArrow=ERzeroToMany;endFill=1;exitX=1;exitY=0.5;exitDx=0;exitDy=0;" edge="1" parent="1" source="dVuEft-SKmpXerfjnewb-5" target="dVuEft-SKmpXerfjnewb-150">
          <mxGeometry relative="1" as="geometry">
            <Array as="points">
              <mxPoint x="500" y="365" />
              <mxPoint x="500" y="345" />
            </Array>
          </mxGeometry>
        </mxCell>
      </root>
    </mxGraphModel>
  </diagram>
</mxfile>
